<?xml version="1.0" encoding="UTF-8" standalone="no"?>
<svg
   sodipodi:docname="logo_2022.svg"
   inkscape:version="1.1.2 (0a00cf5339, 2022-02-04, custom)"
   id="svg8"
   version="1.1"
   viewBox="0 0 1176.4163 1176.4163"
   height="1176.4163"
   width="1176.4163"
   xmlns:inkscape="http://www.inkscape.org/namespaces/inkscape"
   xmlns:sodipodi="http://sodipodi.sourceforge.net/DTD/sodipodi-0.dtd"
   xmlns="http://www.w3.org/2000/svg"
   xmlns:svg="http://www.w3.org/2000/svg"
   xmlns:rdf="http://www.w3.org/1999/02/22-rdf-syntax-ns#"
   xmlns:cc="http://creativecommons.org/ns#"
   xmlns:dc="http://purl.org/dc/elements/1.1/">
  <defs
     id="defs2" />
  <sodipodi:namedview
     inkscape:window-maximized="1"
     inkscape:window-y="524"
     inkscape:window-x="1121"
     inkscape:window-height="1048"
     inkscape:window-width="2519"
     showborder="false"
     units="px"
     showgrid="false"
     inkscape:document-rotation="0"
     inkscape:current-layer="layer1"
     inkscape:document-units="px"
     inkscape:cy="1216.8124"
     inkscape:cx="-993.22854"
     inkscape:zoom="0.23257487"
     inkscape:pageshadow="0"
     inkscape:pageopacity="0.0"
     borderopacity="1.0"
     bordercolor="#666666"
     pagecolor="#ffffff"
     id="base"
     inkscape:pagecheckerboard="1"
     showguides="true"
     inkscape:guide-bbox="true"
     inkscape:snap-bbox="true"
     inkscape:bbox-nodes="true"
     inkscape:bbox-paths="true"
     inkscape:snap-bbox-midpoints="true"
     fit-margin-top="0"
     fit-margin-left="0"
     fit-margin-right="0"
     fit-margin-bottom="0"
     inkscape:object-paths="true"
     inkscape:snap-intersection-paths="true"
     inkscape:snap-smooth-nodes="true"
     inkscape:snap-midpoints="true">
    <sodipodi:guide
       position="589.99981,586.41628"
       orientation="-0.70710678,-0.70710678"
       id="guide943" />
    <sodipodi:guide
       position="1636.3841,-438.49417"
       orientation="0,-1"
       id="guide24458" />
    <sodipodi:guide
       position="1636.384,-438.49417"
       orientation="1,0"
       id="guide24460" />
    <sodipodi:guide
       position="589.99981,586.41628"
       orientation="0.70710678,-0.70710678"
       id="guide98214" />
  </sodipodi:namedview>
  <metadata
     id="metadata5">
    <rdf:RDF>
      <cc:Work
         rdf:about="">
        <dc:format>image/svg+xml</dc:format>
        <dc:type
           rdf:resource="http://purl.org/dc/dcmitype/StillImage" />
      </cc:Work>
    </rdf:RDF>
  </metadata>
  <g
     id="layer1"
     inkscape:groupmode="layer"
     inkscape:label="Layer 1"
     transform="translate(4723.9043,1610.3834)">
    <g
       id="g99476"
       transform="translate(1.7915008,1.791893)">
      <rect
         style="fill:#330000;fill-opacity:0;stroke:none;stroke-width:3.59468;stroke-linecap:butt;stroke-linejoin:bevel;stroke-miterlimit:4;stroke-dasharray:none;stroke-opacity:1;paint-order:stroke fill markers"
         id="rect98719"
         width="1180"
         height="1180"
         x="-4725.6958"
         y="-1612.1753"
         rx="0"
         ry="0" />
      <g
         id="g99106">
        <g
           id="g54588"
           style="fill:#0b1628;fill-opacity:1;stroke:#162c50;stroke-width:27.9652;stroke-miterlimit:4;stroke-dasharray:none;stroke-opacity:1"
           transform="matrix(0.35758694,0,0,0.35758694,-3031.4514,-1023.9818)">
          <g
             id="g54573"
             style="fill:#0b1628;fill-opacity:1;stroke:#162c50;stroke-width:27.9652;stroke-miterlimit:4;stroke-dasharray:none;stroke-opacity:1">
            <path
               d="m -4423.3668,107.97937 0.092,-40.78027 -203.9013,-0.462748 81.6531,-40.595172 0.092,-40.780272 -81.468,-40.96537 203.9014,0.462747 0.093,-40.780271 -285.4619,-0.647846 -0.092,40.780271 122.202,61.4480557 -122.4797,60.8927583 -0.092,40.780267 z"
               id="path54253"
               style="font-size:326.243px;line-height:1.15;font-family:Manteka;-inkscape-font-specification:Manteka;font-variant-ligatures:none;letter-spacing:33.9837px;fill:#0b1628;fill-opacity:1;stroke:#162c50;stroke-width:27.9652;stroke-miterlimit:4;stroke-dasharray:none;stroke-opacity:1" />
            <path
               d="m -4430.1812,-298.47262 -15.6478,80.04563 -200.1141,-39.1194 15.6478,-80.04563 z m 24.375,87.86951 15.6478,-80.04563 c 2.1393,-10.94374 0.2209,-21.05758 -6.0679,-30.40264 -5.9762,-9.28393 -14.8746,-15.2436 -26.1311,-17.44406 l -200.114,-39.1194 c -10.9438,-2.13934 -21.1187,0.0917 -30.4638,6.38061 -9.3451,6.28885 -15.2436,14.87459 -17.3829,25.81833 l -15.6478,80.04563 c -2.2005,11.25642 -0.03,21.74406 6.3195,30.77644 6.2888,9.34506 14.9357,14.93092 25.8794,17.07026 l 200.1141,39.1194 c 11.2564,2.20047 21.683,0.34318 30.7153,-6.0068 9.284,-5.97618 14.931,-14.93572 17.1314,-26.19214 z"
               id="path54255"
               style="font-size:326.243px;line-height:1.15;font-family:Manteka;-inkscape-font-specification:Manteka;font-variant-ligatures:none;letter-spacing:33.9837px;fill:#0b1628;fill-opacity:1;stroke:#162c50;stroke-width:27.9652;stroke-miterlimit:4;stroke-dasharray:none;stroke-opacity:1" />
            <path
               d="m -4361.5247,-402.81714 14.6938,-38.04119 -114.1236,-44.08127 29.3875,-76.08239 114.1236,44.08126 14.6937,-38.0412 -266.2884,-102.85628 -14.6937,38.0412 114.1236,44.08126 -29.3875,76.0824 -114.1236,-44.08127 -14.6938,38.0412 z"
               id="path54257"
               style="font-size:326.243px;line-height:1.15;font-family:Manteka;-inkscape-font-specification:Manteka;font-variant-ligatures:none;letter-spacing:33.9837px;fill:#0b1628;fill-opacity:1;stroke:#162c50;stroke-width:27.9652;stroke-miterlimit:4;stroke-dasharray:none;stroke-opacity:1" />
            <path
               d="m -4345.8395,-811.52218 -42.2407,69.77022 -69.7702,-42.24066 42.2407,-69.77022 z m 76.1794,189.13663 21.1204,-34.88511 -104.6554,-63.36098 42.2407,-69.77022 104.6553,63.36098 21.1204,-34.88511 -209.3107,-126.72196 c -9.5389,-5.77509 -19.8601,-7.18214 -30.7987,-4.49371 -10.9386,2.68844 -19.4317,8.7196 -25.2067,18.2585 l -42.2407,69.77022 c -5.9401,9.81144 -7.5121,20.40521 -4.6587,31.07123 2.6884,10.93856 8.8846,19.15912 18.4235,24.9342 z"
               id="path54259"
               style="font-size:326.243px;line-height:1.15;font-family:Manteka;-inkscape-font-specification:Manteka;font-variant-ligatures:none;letter-spacing:33.9837px;fill:#0b1628;fill-opacity:1;stroke:#162c50;stroke-width:27.9652;stroke-miterlimit:4;stroke-dasharray:none;stroke-opacity:1" />
            <path
               d="m -4141.8337,-823.41993 27.3666,-30.23414 -151.1707,-136.83345 87.835,24.49924 27.3667,-30.23415 -33.1016,-84.96747 151.1707,136.8334 27.3667,-30.23414 -211.639,-191.56686 -27.3667,30.2342 49.6524,127.4513 -131.7525,-36.7489 -27.3666,30.2341 z"
               id="path54261"
               style="font-size:326.243px;line-height:1.15;font-family:Manteka;-inkscape-font-specification:Manteka;font-variant-ligatures:none;letter-spacing:33.9837px;fill:#0b1628;fill-opacity:1;stroke:#162c50;stroke-width:27.9652;stroke-miterlimit:4;stroke-dasharray:none;stroke-opacity:1" />
            <path
               d="m -3948.9436,-1024.9556 33.0004,-23.9586 -119.7927,-165.0021 80.9175,42.0423 33.0004,-23.9585 -14.9166,-89.9594 119.7926,165.0021 33.0005,-23.9585 -167.7098,-231.003 -33.0004,23.9586 22.375,134.939 -121.3763,-63.0634 -33.0004,23.9585 z"
               id="path54263"
               style="font-size:326.243px;line-height:1.15;font-family:Manteka;-inkscape-font-specification:Manteka;font-variant-ligatures:none;letter-spacing:33.9837px;fill:#0b1628;fill-opacity:1;stroke:#162c50;stroke-width:27.9652;stroke-miterlimit:4;stroke-dasharray:none;stroke-opacity:1" />
            <path
               d="m -3675.9573,-1380.6978 -73.9577,34.3861 -34.3862,-73.9577 73.9578,-34.3862 z m -42.1643,199.4947 36.9788,-17.1931 -51.5792,-110.9366 73.9578,-34.3861 51.5792,110.9366 36.9789,-17.1931 -103.1585,-221.8733 c -4.7012,-10.1114 -12.4865,-17.0321 -23.0669,-20.8965 -10.5805,-3.8644 -20.9936,-3.5905 -31.105,1.1107 l -73.9578,34.3862 c -10.4003,4.8355 -17.6099,12.7551 -21.1854,23.2013 -3.8645,10.5804 -3.3016,20.8592 1.3996,30.9706 z"
               id="path54265"
               style="font-size:326.243px;line-height:1.15;font-family:Manteka;-inkscape-font-specification:Manteka;font-variant-ligatures:none;letter-spacing:33.9837px;fill:#0b1628;fill-opacity:1;stroke:#162c50;stroke-width:27.9652;stroke-miterlimit:4;stroke-dasharray:none;stroke-opacity:1" />
            <path
               d="m -3391.6043,-1345.9952 -78.884,20.7238 -51.8096,-197.2099 78.884,-20.7238 z m -107.964,70.5277 118.3259,-31.0857 c 10.7849,-2.8334 19.0577,-8.9596 24.7374,-18.687 5.7607,-9.4191 7.257,-20.0239 4.3427,-31.1169 l -51.8097,-197.2099 c -2.8333,-10.7849 -9.2677,-18.9768 -18.995,-24.6565 -9.7273,-5.6797 -20.0239,-7.2569 -30.8089,-4.4236 l -118.3259,31.0858 z"
               id="path54267"
               style="font-size:326.243px;line-height:1.15;font-family:Manteka;-inkscape-font-specification:Manteka;font-variant-ligatures:none;letter-spacing:33.9837px;fill:#0b1628;fill-opacity:1;stroke:#162c50;stroke-width:27.9652;stroke-miterlimit:4;stroke-dasharray:none;stroke-opacity:1" />
          </g>
          <g
             id="g54555"
             style="fill:#0b1628;fill-opacity:1;stroke:#162c50;stroke-width:27.9652;stroke-miterlimit:4;stroke-dasharray:none;stroke-opacity:1">
            <path
               d="m -3853.3711,-825.71158 -57.9152,57.42811 -57.4281,-57.91518 57.9152,-57.42811 z m 27.9834,201.97253 28.9576,-28.71405 -86.1421,-86.87278 57.9151,-57.42811 86.1422,86.87277 28.9576,-28.71406 -172.2843,-173.74554 c -7.8515,-7.91809 -17.5224,-11.78875 -28.7864,-11.83632 -11.264,-0.0476 -20.9672,3.74129 -28.8853,11.59279 l -57.9152,57.42811 c -8.1443,8.07583 -12.2412,17.97102 -12.0625,29.01069 -0.048,11.26399 3.9675,20.74287 11.819,28.66096 z"
               id="path54025"
               style="font-size:326.243px;line-height:1.15;font-family:Manteka;-inkscape-font-specification:Manteka;font-variant-ligatures:none;letter-spacing:30px;fill:#0b1628;fill-opacity:1;stroke:#162c50;stroke-width:27.9652;stroke-miterlimit:4;stroke-dasharray:none;stroke-opacity:1" />
            <path
               d="m -3653.1517,-782.37772 139.995,-83.72587 -20.9315,-34.99876 -104.9963,62.79441 -125.5888,-209.99256 -34.9987,20.9315 z"
               id="path54027"
               style="font-size:326.243px;line-height:1.15;font-family:Manteka;-inkscape-font-specification:Manteka;font-variant-ligatures:none;letter-spacing:30px;fill:#0b1628;fill-opacity:1;stroke:#162c50;stroke-width:27.9652;stroke-miterlimit:4;stroke-dasharray:none;stroke-opacity:1" />
            <path
               d="m -3447.4417,-893.64411 116.2131,-38.23431 -12.7447,-38.73771 -38.7377,12.74477 -63.7239,-193.68854 38.7377,-12.7448 -12.7447,-38.7377 -116.2132,38.2343 12.7448,38.7377 38.7377,-12.7447 63.7238,193.68851 -38.7377,12.74477 z"
               id="path54029"
               style="font-size:326.243px;line-height:1.15;font-family:Manteka;-inkscape-font-specification:Manteka;font-variant-ligatures:none;letter-spacing:30px;fill:#0b1628;fill-opacity:1;stroke:#162c50;stroke-width:27.9652;stroke-miterlimit:4;stroke-dasharray:none;stroke-opacity:1" />
          </g>
        </g>
        <g
           id="g60870"
           style="fill:#2c5aa0;fill-opacity:1;stroke:#2c5aa0;stroke-opacity:1"
           transform="matrix(0.35758694,0,0,0.35758694,-3031.4514,-1023.9818)">
          <g
             id="g60860"
             style="fill:#2c5aa0;fill-opacity:1;stroke:#2c5aa0;stroke-opacity:1">
            <path
               d="m -4423.3668,107.97937 0.092,-40.78027 -203.9013,-0.462748 81.6531,-40.595172 0.092,-40.780272 -81.468,-40.96537 203.9014,0.462747 0.093,-40.780271 -285.4619,-0.647846 -0.092,40.780271 122.202,61.4480557 -122.4797,60.8927583 -0.092,40.780267 z"
               id="path60844"
               style="font-size:326.243px;line-height:1.15;font-family:Manteka;-inkscape-font-specification:Manteka;font-variant-ligatures:none;letter-spacing:33.9837px;fill:#2c5aa0;fill-opacity:1;stroke:#2c5aa0;stroke-width:20;stroke-opacity:1" />
            <path
               d="m -4430.1812,-298.47262 -15.6478,80.04563 -200.1141,-39.1194 15.6478,-80.04563 z m 24.375,87.86951 15.6478,-80.04563 c 2.1393,-10.94374 0.2209,-21.05758 -6.0679,-30.40264 -5.9762,-9.28393 -14.8746,-15.2436 -26.1311,-17.44406 l -200.114,-39.1194 c -10.9438,-2.13934 -21.1187,0.0917 -30.4638,6.38061 -9.3451,6.28885 -15.2436,14.87459 -17.3829,25.81833 l -15.6478,80.04563 c -2.2005,11.25642 -0.03,21.74406 6.3195,30.77644 6.2888,9.34506 14.9357,14.93092 25.8794,17.07026 l 200.1141,39.1194 c 11.2564,2.20047 21.683,0.34318 30.7153,-6.0068 9.284,-5.97618 14.931,-14.93572 17.1314,-26.19214 z"
               id="path60846"
               style="font-size:326.243px;line-height:1.15;font-family:Manteka;-inkscape-font-specification:Manteka;font-variant-ligatures:none;letter-spacing:33.9837px;fill:#2c5aa0;fill-opacity:1;stroke:#2c5aa0;stroke-width:20;stroke-opacity:1" />
            <path
               d="m -4361.5247,-402.81714 14.6938,-38.04119 -114.1236,-44.08127 29.3875,-76.08239 114.1236,44.08126 14.6937,-38.0412 -266.2884,-102.85628 -14.6937,38.0412 114.1236,44.08126 -29.3875,76.0824 -114.1236,-44.08127 -14.6938,38.0412 z"
               id="path60848"
               style="font-size:326.243px;line-height:1.15;font-family:Manteka;-inkscape-font-specification:Manteka;font-variant-ligatures:none;letter-spacing:33.9837px;fill:#2c5aa0;fill-opacity:1;stroke:#2c5aa0;stroke-width:20;stroke-opacity:1" />
            <path
               d="m -4345.8395,-811.52218 -42.2407,69.77022 -69.7702,-42.24066 42.2407,-69.77022 z m 76.1794,189.13663 21.1204,-34.88511 -104.6554,-63.36098 42.2407,-69.77022 104.6553,63.36098 21.1204,-34.88511 -209.3107,-126.72196 c -9.5389,-5.77509 -19.8601,-7.18214 -30.7987,-4.49371 -10.9386,2.68844 -19.4317,8.7196 -25.2067,18.2585 l -42.2407,69.77022 c -5.9401,9.81144 -7.5121,20.40521 -4.6587,31.07123 2.6884,10.93856 8.8846,19.15912 18.4235,24.9342 z"
               id="path60850"
               style="font-size:326.243px;line-height:1.15;font-family:Manteka;-inkscape-font-specification:Manteka;font-variant-ligatures:none;letter-spacing:33.9837px;fill:#2c5aa0;fill-opacity:1;stroke:#2c5aa0;stroke-width:20;stroke-opacity:1" />
            <path
               d="m -4141.8337,-823.41993 27.3666,-30.23414 -151.1707,-136.83345 87.835,24.49924 27.3667,-30.23415 -33.1016,-84.96747 151.1707,136.8334 27.3667,-30.23414 -211.639,-191.56686 -27.3667,30.2342 49.6524,127.4513 -131.7525,-36.7489 -27.3666,30.2341 z"
               id="path60852"
               style="font-size:326.243px;line-height:1.15;font-family:Manteka;-inkscape-font-specification:Manteka;font-variant-ligatures:none;letter-spacing:33.9837px;fill:#2c5aa0;fill-opacity:1;stroke:#2c5aa0;stroke-width:20;stroke-opacity:1" />
            <path
               d="m -3948.9436,-1024.9556 33.0004,-23.9586 -119.7927,-165.0021 80.9175,42.0423 33.0004,-23.9585 -14.9166,-89.9594 119.7926,165.0021 33.0005,-23.9585 -167.7098,-231.003 -33.0004,23.9586 22.375,134.939 -121.3763,-63.0634 -33.0004,23.9585 z"
               id="path60854"
               style="font-size:326.243px;line-height:1.15;font-family:Manteka;-inkscape-font-specification:Manteka;font-variant-ligatures:none;letter-spacing:33.9837px;fill:#2c5aa0;fill-opacity:1;stroke:#2c5aa0;stroke-width:20;stroke-opacity:1" />
            <path
               d="m -3675.9573,-1380.6978 -73.9577,34.3861 -34.3862,-73.9577 73.9578,-34.3862 z m -42.1643,199.4947 36.9788,-17.1931 -51.5792,-110.9366 73.9578,-34.3861 51.5792,110.9366 36.9789,-17.1931 -103.1585,-221.8733 c -4.7012,-10.1114 -12.4865,-17.0321 -23.0669,-20.8965 -10.5805,-3.8644 -20.9936,-3.5905 -31.105,1.1107 l -73.9578,34.3862 c -10.4003,4.8355 -17.6099,12.7551 -21.1854,23.2013 -3.8645,10.5804 -3.3016,20.8592 1.3996,30.9706 z"
               id="path60856"
               style="font-size:326.243px;line-height:1.15;font-family:Manteka;-inkscape-font-specification:Manteka;font-variant-ligatures:none;letter-spacing:33.9837px;fill:#2c5aa0;fill-opacity:1;stroke:#2c5aa0;stroke-width:20;stroke-opacity:1" />
            <path
               d="m -3391.6043,-1345.9952 -78.884,20.7238 -51.8096,-197.2099 78.884,-20.7238 z m -107.964,70.5277 118.3259,-31.0857 c 10.7849,-2.8334 19.0577,-8.9596 24.7374,-18.687 5.7607,-9.4191 7.257,-20.0239 4.3427,-31.1169 l -51.8097,-197.2099 c -2.8333,-10.7849 -9.2677,-18.9768 -18.995,-24.6565 -9.7273,-5.6797 -20.0239,-7.2569 -30.8089,-4.4236 l -118.3259,31.0858 z"
               id="path60858"
               style="font-size:326.243px;line-height:1.15;font-family:Manteka;-inkscape-font-specification:Manteka;font-variant-ligatures:none;letter-spacing:33.9837px;fill:#2c5aa0;fill-opacity:1;stroke:#2c5aa0;stroke-width:20;stroke-opacity:1" />
          </g>
          <g
             id="g60868"
             style="fill:#2c5aa0;fill-opacity:1;stroke:#2c5aa0;stroke-opacity:1">
            <path
               d="m -3853.3711,-825.71158 -57.9152,57.42811 -57.4281,-57.91518 57.9152,-57.42811 z m 27.9834,201.97253 28.9576,-28.71405 -86.1421,-86.87278 57.9151,-57.42811 86.1422,86.87277 28.9576,-28.71406 -172.2843,-173.74554 c -7.8515,-7.91809 -17.5224,-11.78875 -28.7864,-11.83632 -11.264,-0.0476 -20.9672,3.74129 -28.8853,11.59279 l -57.9152,57.42811 c -8.1443,8.07583 -12.2412,17.97102 -12.0625,29.01069 -0.048,11.26399 3.9675,20.74287 11.819,28.66096 z"
               id="path60862"
               style="font-size:326.243px;line-height:1.15;font-family:Manteka;-inkscape-font-specification:Manteka;font-variant-ligatures:none;letter-spacing:30px;fill:#2c5aa0;fill-opacity:1;stroke:#2c5aa0;stroke-width:20;stroke-opacity:1" />
            <path
               d="m -3653.1517,-782.37772 139.995,-83.72587 -20.9315,-34.99876 -104.9963,62.79441 -125.5888,-209.99256 -34.9987,20.9315 z"
               id="path60864"
               style="font-size:326.243px;line-height:1.15;font-family:Manteka;-inkscape-font-specification:Manteka;font-variant-ligatures:none;letter-spacing:30px;fill:#2c5aa0;fill-opacity:1;stroke:#2c5aa0;stroke-width:20;stroke-opacity:1" />
            <path
               d="m -3447.4417,-893.64411 116.2131,-38.23431 -12.7447,-38.73771 -38.7377,12.74477 -63.7239,-193.68854 38.7377,-12.7448 -12.7447,-38.7377 -116.2132,38.2343 12.7448,38.7377 38.7377,-12.7447 63.7238,193.68851 -38.7377,12.74477 z"
               id="path60866"
               style="font-size:326.243px;line-height:1.15;font-family:Manteka;-inkscape-font-specification:Manteka;font-variant-ligatures:none;letter-spacing:30px;fill:#2c5aa0;fill-opacity:1;stroke:#2c5aa0;stroke-width:20;stroke-opacity:1" />
          </g>
        </g>
      </g>
      <g
         id="g99076">
        <g
           id="g84002"
           style="fill:#504416;fill-opacity:1;stroke:#504416;stroke-width:27.9652;stroke-miterlimit:4;stroke-dasharray:none;stroke-opacity:1"
           transform="matrix(0.35758694,0,0,0.35758694,-3031.4514,-1023.9818)">
          <path
             d="m -4038.562,176.8463 -11.1436,-80.795895 c -1.5236,-11.046314 -6.6168,-19.992227 -15.5952,-26.79421 -8.6629,-6.845512 -19.0127,-9.599009 -30.3746,-8.031941 l -80.7959,11.143594 c -11.0463,1.523538 -19.9487,6.932344 -26.7507,15.91081 -6.8019,8.978466 -9.599,19.012622 -8.0754,30.058932 l 11.1436,80.7959 -80.7959,11.14359 -11.1436,-80.79589 40.3979,-5.5718 -5.5718,-40.397949 -40.3979,5.571797 c -11.0463,1.523538 -19.9487,6.932345 -26.7507,15.910812 -6.802,8.97846 -9.599,19.01262 -8.0755,30.05893 l 11.1436,80.7959 c 1.5671,11.36192 7.0194,20.57991 15.9544,27.06629 8.9784,6.80198 18.9691,9.2834 30.0154,7.75986 l 80.7959,-11.14359 c 11.3619,-1.56707 20.6234,-6.7038 27.1098,-15.63874 6.8455,-8.66285 9.2834,-18.96909 7.7163,-30.33101 l -11.1436,-80.79589 80.7959,-11.1436 11.1436,80.7959 -40.3979,5.57179 5.5718,40.39795 40.3979,-5.5718 c 11.3619,-1.56706 20.6235,-6.70379 27.1098,-15.63873 6.8455,-8.66285 9.2834,-18.96909 7.7164,-30.33101 z"
             id="path83990"
             style="font-size:326.243px;line-height:1.15;font-family:Manteka;-inkscape-font-specification:Manteka;font-variant-ligatures:none;letter-spacing:30px;fill:#504416;fill-opacity:1;stroke:#504416;stroke-width:27.9652;stroke-miterlimit:4;stroke-dasharray:none;stroke-opacity:1" />
          <path
             d="m -4084.1213,-141.68915 -8.5635,81.109937 -202.7748,-21.408857 8.5635,-81.10994 z m 31.9915,85.391709 8.5635,-81.109939 c 1.1708,-11.08925 -1.6277,-20.99574 -8.7123,-29.75291 -6.7678,-8.72373 -16.1548,-13.87958 -27.5609,-15.08383 l -202.7748,-21.40886 c -11.0893,-1.17079 -21.0292,1.94453 -29.7864,9.02914 -8.7572,7.08461 -13.8796,16.15481 -15.0504,27.24406 l -8.5635,81.109939 c -1.2043,11.406085 1.8776,21.662859 8.9957,30.103199 7.0846,8.757176 16.1882,13.562745 27.2775,14.733541 l 202.7748,21.408858 c 11.4061,1.204248 21.6294,-1.560789 30.0698,-8.678849 8.7237,-6.767774 13.5627,-16.188264 14.767,-27.594349 z"
             id="path83992"
             style="font-size:326.243px;line-height:1.15;font-family:Manteka;-inkscape-font-specification:Manteka;font-variant-ligatures:none;letter-spacing:30px;fill:#504416;fill-opacity:1;stroke:#504416;stroke-width:27.9652;stroke-miterlimit:4;stroke-dasharray:none;stroke-opacity:1" />
          <path
             d="m -4009.3845,-285.89108 41.6504,-115.033 -38.3443,-13.88348 -41.6504,115.033 -191.7217,-69.4174 41.6504,-115.033 -38.3443,-13.88348 -41.6504,115.033 c -3.9048,10.78435 -3.3728,21.48091 1.5131,31.38209 4.7776,10.20074 12.4629,17.04947 22.9477,20.84573 l 191.7217,69.4174 c 10.7843,3.90473 21.3724,3.67235 31.2736,-1.21362 10.0923,-4.47795 17.0495,-12.46289 20.9542,-23.24724 z"
             id="path83994"
             style="font-size:326.243px;line-height:1.15;font-family:Manteka;-inkscape-font-specification:Manteka;font-variant-ligatures:none;letter-spacing:30px;fill:#504416;fill-opacity:1;stroke:#504416;stroke-width:27.9652;stroke-miterlimit:4;stroke-dasharray:none;stroke-opacity:1" />
          <path
             d="m -3934.2264,-463.80657 65.8635,-103.09876 -34.3662,-21.95449 -21.9545,34.36625 -171.8313,-109.77246 21.9545,-34.36626 -34.3663,-21.95449 -65.8634,103.09876 34.3662,21.95449 21.9545,-34.36625 171.8313,109.77246 -21.9545,34.36626 z"
             id="path83996"
             style="font-size:326.243px;line-height:1.15;font-family:Manteka;-inkscape-font-specification:Manteka;font-variant-ligatures:none;letter-spacing:30px;fill:#504416;fill-opacity:1;stroke:#504416;stroke-width:27.9652;stroke-miterlimit:4;stroke-dasharray:none;stroke-opacity:1" />
          <path
             d="m -3221.4103,-952.68208 81.1791,-7.88095 c 11.0987,-1.07748 20.2424,-5.8063 27.4004,-14.50357 7.1888,-8.38016 10.3569,-18.61065 9.2486,-30.0265 l -7.8809,-81.1791 c -1.0775,-11.0987 -6.1234,-20.2116 -14.8207,-27.3697 -8.6973,-7.158 -18.6106,-10.3568 -29.7094,-9.2793 l -81.1791,7.8809 -7.8809,-81.1791 81.1791,-7.8809 3.9405,40.5895 40.5895,-3.9405 -3.9405,-40.5895 c -1.0774,-11.0987 -6.1234,-20.2117 -14.8206,-27.3697 -8.6973,-7.158 -18.6107,-10.3569 -29.7094,-9.2794 l -81.1791,7.881 c -11.4158,1.1082 -20.8459,6.1849 -27.6868,14.8514 -7.158,8.6973 -10.0397,18.5799 -8.9623,29.6786 l 7.881,81.1791 c 1.1082,11.4158 5.8679,20.8767 14.5343,27.7176 8.3802,7.1888 18.5799,10.0397 29.9957,8.9315 l 81.1791,-7.881 7.881,81.1791 -81.1791,7.88097 -3.9405,-40.58957 -40.5896,3.9405 3.9405,40.58955 c 1.1083,11.41581 5.8679,20.87667 14.5344,27.71759 8.3801,7.18881 18.5798,10.03974 29.9957,8.93148 z"
             id="path83998"
             style="font-size:326.243px;line-height:1.15;font-family:Manteka;-inkscape-font-specification:Manteka;font-variant-ligatures:none;letter-spacing:30px;fill:#504416;fill-opacity:1;stroke:#504416;stroke-width:27.9652;stroke-miterlimit:4;stroke-dasharray:none;stroke-opacity:1" />
          <path
             d="m -2987.9621,-956.47746 40.4099,5.48447 32.9068,-242.45941 60.6149,8.2267 5.4845,-40.4099 -161.6396,-21.9378 -5.4845,40.4099 60.6149,8.2267 z"
             id="path84000"
             style="font-size:326.243px;line-height:1.15;font-family:Manteka;-inkscape-font-specification:Manteka;font-variant-ligatures:none;letter-spacing:30px;fill:#504416;fill-opacity:1;stroke:#504416;stroke-width:27.9652;stroke-miterlimit:4;stroke-dasharray:none;stroke-opacity:1" />
        </g>
        <g
           id="g54442"
           style="fill:#c8ab37;stroke:#c8ab37"
           transform="matrix(0.35758694,0,0,0.35758694,-3031.4514,-1023.9818)">
          <path
             d="m -4038.562,176.8463 -11.1436,-80.795895 c -1.5236,-11.046314 -6.6168,-19.992227 -15.5952,-26.79421 -8.6629,-6.845512 -19.0127,-9.599009 -30.3746,-8.031941 l -80.7959,11.143594 c -11.0463,1.523538 -19.9487,6.932344 -26.7507,15.91081 -6.8019,8.978466 -9.599,19.012622 -8.0754,30.058932 l 11.1436,80.7959 -80.7959,11.14359 -11.1436,-80.79589 40.3979,-5.5718 -5.5718,-40.397949 -40.3979,5.571797 c -11.0463,1.523538 -19.9487,6.932345 -26.7507,15.910812 -6.802,8.97846 -9.599,19.01262 -8.0755,30.05893 l 11.1436,80.7959 c 1.5671,11.36192 7.0194,20.57991 15.9544,27.06629 8.9784,6.80198 18.9691,9.2834 30.0154,7.75986 l 80.7959,-11.14359 c 11.3619,-1.56707 20.6234,-6.7038 27.1098,-15.63874 6.8455,-8.66285 9.2834,-18.96909 7.7163,-30.33101 l -11.1436,-80.79589 80.7959,-11.1436 11.1436,80.7959 -40.3979,5.57179 5.5718,40.39795 40.3979,-5.5718 c 11.3619,-1.56706 20.6235,-6.70379 27.1098,-15.63873 6.8455,-8.66285 9.2834,-18.96909 7.7164,-30.33101 z"
             id="path54017"
             style="font-size:326.243px;line-height:1.15;font-family:Manteka;-inkscape-font-specification:Manteka;font-variant-ligatures:none;letter-spacing:30px;fill:#c8ab37;stroke:#c8ab37;stroke-width:20" />
          <path
             d="m -4084.1213,-141.68915 -8.5635,81.109937 -202.7748,-21.408857 8.5635,-81.10994 z m 31.9915,85.391709 8.5635,-81.109939 c 1.1708,-11.08925 -1.6277,-20.99574 -8.7123,-29.75291 -6.7678,-8.72373 -16.1548,-13.87958 -27.5609,-15.08383 l -202.7748,-21.40886 c -11.0893,-1.17079 -21.0292,1.94453 -29.7864,9.02914 -8.7572,7.08461 -13.8796,16.15481 -15.0504,27.24406 l -8.5635,81.109939 c -1.2043,11.406085 1.8776,21.662859 8.9957,30.103199 7.0846,8.757176 16.1882,13.562745 27.2775,14.733541 l 202.7748,21.408858 c 11.4061,1.204248 21.6294,-1.560789 30.0698,-8.678849 8.7237,-6.767774 13.5627,-16.188264 14.767,-27.594349 z"
             id="path54019"
             style="font-size:326.243px;line-height:1.15;font-family:Manteka;-inkscape-font-specification:Manteka;font-variant-ligatures:none;letter-spacing:30px;fill:#c8ab37;stroke:#c8ab37;stroke-width:20" />
          <path
             d="m -4009.3845,-285.89108 41.6504,-115.033 -38.3443,-13.88348 -41.6504,115.033 -191.7217,-69.4174 41.6504,-115.033 -38.3443,-13.88348 -41.6504,115.033 c -3.9048,10.78435 -3.3728,21.48091 1.5131,31.38209 4.7776,10.20074 12.4629,17.04947 22.9477,20.84573 l 191.7217,69.4174 c 10.7843,3.90473 21.3724,3.67235 31.2736,-1.21362 10.0923,-4.47795 17.0495,-12.46289 20.9542,-23.24724 z"
             id="path54021"
             style="font-size:326.243px;line-height:1.15;font-family:Manteka;-inkscape-font-specification:Manteka;font-variant-ligatures:none;letter-spacing:30px;fill:#c8ab37;stroke:#c8ab37;stroke-width:20" />
          <path
             d="m -3934.2264,-463.80657 65.8635,-103.09876 -34.3662,-21.95449 -21.9545,34.36625 -171.8313,-109.77246 21.9545,-34.36626 -34.3663,-21.95449 -65.8634,103.09876 34.3662,21.95449 21.9545,-34.36625 171.8313,109.77246 -21.9545,34.36626 z"
             id="path54023"
             style="font-size:326.243px;line-height:1.15;font-family:Manteka;-inkscape-font-specification:Manteka;font-variant-ligatures:none;letter-spacing:30px;fill:#c8ab37;stroke:#c8ab37;stroke-width:20" />
          <path
             d="m -3221.4103,-952.68208 81.1791,-7.88095 c 11.0987,-1.07748 20.2424,-5.8063 27.4004,-14.50357 7.1888,-8.38016 10.3569,-18.61065 9.2486,-30.0265 l -7.8809,-81.1791 c -1.0775,-11.0987 -6.1234,-20.2116 -14.8207,-27.3697 -8.6973,-7.158 -18.6106,-10.3568 -29.7094,-9.2793 l -81.1791,7.8809 -7.8809,-81.1791 81.1791,-7.8809 3.9405,40.5895 40.5895,-3.9405 -3.9405,-40.5895 c -1.0774,-11.0987 -6.1234,-20.2117 -14.8206,-27.3697 -8.6973,-7.158 -18.6107,-10.3569 -29.7094,-9.2794 l -81.1791,7.881 c -11.4158,1.1082 -20.8459,6.1849 -27.6868,14.8514 -7.158,8.6973 -10.0397,18.5799 -8.9623,29.6786 l 7.881,81.1791 c 1.1082,11.4158 5.8679,20.8767 14.5343,27.7176 8.3802,7.1888 18.5799,10.0397 29.9957,8.9315 l 81.1791,-7.881 7.881,81.1791 -81.1791,7.88097 -3.9405,-40.58957 -40.5896,3.9405 3.9405,40.58955 c 1.1083,11.41581 5.8679,20.87667 14.5344,27.71759 8.3801,7.18881 18.5798,10.03974 29.9957,8.93148 z"
             id="path54031"
             style="font-size:326.243px;line-height:1.15;font-family:Manteka;-inkscape-font-specification:Manteka;font-variant-ligatures:none;letter-spacing:30px;fill:#c8ab37;stroke:#c8ab37;stroke-width:20" />
          <path
             d="m -2987.9621,-956.47746 40.4099,5.48447 32.9068,-242.45941 60.6149,8.2267 5.4845,-40.4099 -161.6396,-21.9378 -5.4845,40.4099 60.6149,8.2267 z"
             id="path54033"
             style="font-size:326.243px;line-height:1.15;font-family:Manteka;-inkscape-font-specification:Manteka;font-variant-ligatures:none;letter-spacing:30px;fill:#c8ab37;stroke:#c8ab37;stroke-width:20" />
        </g>
      </g>
      <g
         id="g99122">
        <g
           aria-label="HIPHOP"
           id="g84016"
           style="font-size:326.243px;line-height:1.15;font-family:Manteka;-inkscape-font-specification:Manteka;font-variant-ligatures:none;letter-spacing:85px;fill:#504416;fill-opacity:1;stroke:#504416;stroke-width:27.9652;stroke-miterlimit:4;stroke-dasharray:none;stroke-opacity:1"
           transform="matrix(0.35758694,0,0,0.35758694,-3031.4514,-1023.9818)">
          <path
             d="m -2864.6525,1243.9958 39.4592,-10.2962 -30.8887,-118.3776 78.9184,-20.5924 30.8887,118.3776 39.4591,-10.2963 -72.0735,-276.21423 -39.4592,10.29622 30.8887,118.37751 -78.9184,20.5925 -30.8886,-118.37758 -39.4592,10.29622 z"
             id="path84004"
             style="fill:#504416;fill-opacity:1;stroke:#504416;stroke-width:27.9652;stroke-miterlimit:4;stroke-dasharray:none;stroke-opacity:1" />
          <path
             d="m -2589.6079,1156.3162 109.3255,-54.9116 -18.3039,-36.4418 -36.4418,18.3038 -91.5193,-182.20916 36.4418,-18.30386 -18.3039,-36.44184 -109.3255,54.91159 18.3039,36.44184 36.4418,-18.30386 91.5193,182.20919 -36.4418,18.3039 z"
             id="path84006"
             style="fill:#504416;fill-opacity:1;stroke:#504416;stroke-width:27.9652;stroke-miterlimit:4;stroke-dasharray:none;stroke-opacity:1" />
          <path
             d="m -2379.3146,831.34589 -63.7029,50.93227 -50.9323,-63.70291 63.7029,-50.93227 z m 6.3102,203.80421 31.8514,-25.4661 -76.3984,-95.55439 63.7029,-50.93226 c 8.7094,-6.96339 13.7871,-15.91809 15.0343,-27.11293 1.4461,-10.94601 -1.4866,-21.24643 -8.6489,-30.20466 l -50.9323,-63.70291 c -6.9634,-8.70938 -16.1669,-13.58816 -27.3618,-14.8353 -11.1948,-1.24713 -21.2464,1.48658 -29.9558,8.44998 l -95.5544,76.39839 z"
             id="path84008"
             style="fill:#504416;fill-opacity:1;stroke:#504416;stroke-width:27.9652;stroke-miterlimit:4;stroke-dasharray:none;stroke-opacity:1" />
          <path
             d="m -2156.4794,843.93005 25.3821,-31.91847 -95.7554,-76.14627 50.7642,-63.83694 95.7554,76.14627 25.3821,-31.91846 -223.4293,-177.67464 -25.3821,31.91847 95.7554,76.14627 -50.7641,63.83694 -95.7555,-76.14627 -25.382,31.91847 z"
             id="path84010"
             style="fill:#504416;fill-opacity:1;stroke:#504416;stroke-width:27.9652;stroke-miterlimit:4;stroke-dasharray:none;stroke-opacity:1" />
          <path
             d="m -1971.8604,481.35428 -35.2462,73.5518 -183.8795,-88.11532 35.2462,-73.5518 z m 1.5297,91.17487 35.2462,-73.5518 c 4.8188,-10.05591 5.5014,-20.32743 1.7606,-30.95222 -3.4534,-10.48712 -10.5702,-18.49026 -20.9135,-23.44674 l -183.8795,-88.11532 c -10.0559,-4.81881 -20.4651,-5.21416 -31.0899,-1.47338 -10.6248,3.74079 -18.4902,10.5703 -23.309,20.62621 l -35.2462,73.5518 c -4.9564,10.34322 -5.4895,21.03972 -1.611,31.37721 3.7408,10.6248 10.708,18.20294 20.7639,23.02175 l 183.8795,88.11532 c 10.3432,4.95649 20.902,5.77683 31.2395,1.89836 10.4871,-3.45347 18.203,-10.70797 23.1594,-21.05119 z"
             id="path84012"
             style="fill:#504416;fill-opacity:1;stroke:#504416;stroke-width:27.9652;stroke-miterlimit:4;stroke-dasharray:none;stroke-opacity:1" />
          <path
             d="m -2008.4845,187.90833 -17.8427,79.58514 -79.5851,-17.84269 17.8426,-79.58515 z m 132.4062,155.06309 8.9214,-39.79257 -119.3777,-26.76404 17.8427,-79.58514 c 2.4394,-10.88078 0.7998,-21.04354 -5.2298,-30.55798 -5.7186,-9.44474 -14.4498,-15.64681 -25.6415,-18.15594 l -79.5851,-17.84269 c -10.8808,-2.43943 -21.1132,-0.48893 -30.6277,5.5406 -9.5144,6.02954 -15.6468,14.44985 -18.0862,25.33063 l -26.7641,119.37771 z"
             id="path84014"
             style="fill:#504416;fill-opacity:1;stroke:#504416;stroke-width:27.9652;stroke-miterlimit:4;stroke-dasharray:none;stroke-opacity:1" />
        </g>
        <g
           aria-label="HIPHOP"
           id="text3988"
           style="font-size:326.243px;line-height:1.15;font-family:Manteka;-inkscape-font-specification:Manteka;font-variant-ligatures:none;letter-spacing:85px;fill:#c8ab37;stroke:#c8ab37;stroke-width:20"
           transform="matrix(0.35758694,0,0,0.35758694,-3031.4514,-1023.9818)">
          <path
             d="m -2864.6525,1243.9958 39.4592,-10.2962 -30.8887,-118.3776 78.9184,-20.5924 30.8887,118.3776 39.4591,-10.2963 -72.0735,-276.21423 -39.4592,10.29622 30.8887,118.37751 -78.9184,20.5925 -30.8886,-118.37758 -39.4592,10.29622 z"
             id="path54054"
             style="fill:#c8ab37;stroke:#c8ab37" />
          <path
             d="m -2589.6079,1156.3162 109.3255,-54.9116 -18.3039,-36.4418 -36.4418,18.3038 -91.5193,-182.20916 36.4418,-18.30386 -18.3039,-36.44184 -109.3255,54.91159 18.3039,36.44184 36.4418,-18.30386 91.5193,182.20919 -36.4418,18.3039 z"
             id="path54056"
             style="fill:#c8ab37;stroke:#c8ab37" />
          <path
             d="m -2379.3146,831.34589 -63.7029,50.93227 -50.9323,-63.70291 63.7029,-50.93227 z m 6.3102,203.80421 31.8514,-25.4661 -76.3984,-95.55439 63.7029,-50.93226 c 8.7094,-6.96339 13.7871,-15.91809 15.0343,-27.11293 1.4461,-10.94601 -1.4866,-21.24643 -8.6489,-30.20466 l -50.9323,-63.70291 c -6.9634,-8.70938 -16.1669,-13.58816 -27.3618,-14.8353 -11.1948,-1.24713 -21.2464,1.48658 -29.9558,8.44998 l -95.5544,76.39839 z"
             id="path54058"
             style="fill:#c8ab37;stroke:#c8ab37" />
          <path
             d="m -2156.4794,843.93005 25.3821,-31.91847 -95.7554,-76.14627 50.7642,-63.83694 95.7554,76.14627 25.3821,-31.91846 -223.4293,-177.67464 -25.3821,31.91847 95.7554,76.14627 -50.7641,63.83694 -95.7555,-76.14627 -25.382,31.91847 z"
             id="path54060"
             style="fill:#c8ab37;stroke:#c8ab37" />
          <path
             d="m -1971.8604,481.35428 -35.2462,73.5518 -183.8795,-88.11532 35.2462,-73.5518 z m 1.5297,91.17487 35.2462,-73.5518 c 4.8188,-10.05591 5.5014,-20.32743 1.7606,-30.95222 -3.4534,-10.48712 -10.5702,-18.49026 -20.9135,-23.44674 l -183.8795,-88.11532 c -10.0559,-4.81881 -20.4651,-5.21416 -31.0899,-1.47338 -10.6248,3.74079 -18.4902,10.5703 -23.309,20.62621 l -35.2462,73.5518 c -4.9564,10.34322 -5.4895,21.03972 -1.611,31.37721 3.7408,10.6248 10.708,18.20294 20.7639,23.02175 l 183.8795,88.11532 c 10.3432,4.95649 20.902,5.77683 31.2395,1.89836 10.4871,-3.45347 18.203,-10.70797 23.1594,-21.05119 z"
             id="path54062"
             style="fill:#c8ab37;stroke:#c8ab37" />
          <path
             d="m -2008.4845,187.90833 -17.8427,79.58514 -79.5851,-17.84269 17.8426,-79.58515 z m 132.4062,155.06309 8.9214,-39.79257 -119.3777,-26.76404 17.8427,-79.58514 c 2.4394,-10.88078 0.7998,-21.04354 -5.2298,-30.55798 -5.7186,-9.44474 -14.4498,-15.64681 -25.6415,-18.15594 l -79.5851,-17.84269 c -10.8808,-2.43943 -21.1132,-0.48893 -30.6277,5.5406 -9.5144,6.02954 -15.6468,14.44985 -18.0862,25.33063 l -26.7641,119.37771 z"
             id="path54064"
             style="fill:#c8ab37;stroke:#c8ab37" />
        </g>
      </g>
      <g
         id="g99128">
        <g
           id="g98251"
           transform="matrix(0.95454543,0,0,0.95454543,-178.43321,-44.753396)">
          <rect
             style="fill:#330000;fill-opacity:1;stroke:#330000;stroke-width:3.89625;stroke-linecap:butt;stroke-linejoin:bevel;stroke-miterlimit:4;stroke-dasharray:none;stroke-opacity:1;paint-order:stroke fill markers"
             id="rect84074"
             width="436.10373"
             height="436.10376"
             x="-4363.7559"
             y="-1242.0177"
             rx="44.412128"
             ry="46.149899" />
          <rect
             style="fill:#800000;fill-opacity:1;stroke-width:3.48313;stroke-linecap:round;stroke-linejoin:round;paint-order:stroke fill markers"
             id="rect1038"
             width="436.10373"
             height="436.10376"
             x="-4363.7559"
             y="-1242.0177"
             rx="44.412128"
             ry="46.149899" />
          <path
             sodipodi:type="star"
             style="fill:#ffffff;fill-opacity:1;stroke:#330000;stroke-width:8.47432;stroke-linecap:round;stroke-linejoin:round;stroke-miterlimit:4;stroke-dasharray:none;stroke-opacity:1;paint-order:stroke fill markers"
             id="path844"
             inkscape:flatsided="false"
             sodipodi:sides="5"
             sodipodi:cx="-607.55792"
             sodipodi:cy="-48.178905"
             sodipodi:r1="513.49255"
             sodipodi:r2="195.12717"
             sodipodi:arg1="1.5707963"
             sodipodi:arg2="2.1991149"
             inkscape:rounded="0"
             inkscape:randomized="0"
             inkscape:transform-center-y="-53.421478"
             transform="matrix(0.35401086,0,0,-0.35401086,-3930.6219,-1025.0386)"
             inkscape:transform-center-x="-2.2811722e-05"
             d="m -607.55791,465.31365 -114.69289,-355.63137 -373.6676,0.81675 302.78352,-218.97555 -116.2464,-355.12658 301.82337,220.29703 301.82333,-220.29705 -116.24638,355.12661 302.78348,218.97552 -373.66758,-0.81672 z" />
        </g>
      </g>
    </g>
  </g>
</svg>
